# xmcd CD database file
#
# Track frame offsets:
#	225
#	11167
#	26404
#	42230
#	60828
#	76931
#	91633
#	108913
#	127860
#	142173
#	158753
#	175931
#	194229
#	211717
#	231207
#
# Disc length: 3250 seconds
#
# Revision: 0
# Processed by: cddbd v1.5.1PL0 Copyright (c) Steve Scherf et al.
# Submitted via: CDex 1.51
#
DISCID=ba0caf0f
DTITLE=Gary Williams - Alone Together
DYEAR=2004
DGENRE=Jazz
TTITLE0=Just In Time
TTITLE1=Where or When
TTITLE2=Why Shouldn't I
TTITLE3=Just One of Those Things
TTITLE4=I Remember You
TTITLE5=I Get Along Without You Very Well
TTITLE6=If I Had You
TTITLE7=More Than You Know
TTITLE8=You're Sensational
TTITLE9=My Buddy
TTITLE10=I'll Be Around
TTITLE11=Time After Time
TTITLE12=The End of a Love Affair
TTITLE13=They Can't Take That Away
TTITLE14=Alone Together
EXTD=YEAR: 2004
EXTT0=
EXTT1=
EXTT2=
EXTT3=
EXTT4=
EXTT5=
EXTT6=
EXTT7=
EXTT8=
EXTT9=
EXTT10=
EXTT11=
EXTT12=
EXTT13=
EXTT14=
PLAYORDER=
